<svg width="257" height="257" viewBox="0 0 257 257" fill="none" xmlns="http://www.w3.org/2000/svg">
<rect width="257" height="257" fill="#121212"/>
<path d="M187.486 69.2905C186.93 66.0676 186.564 63.2145 185.76 60.8431C183.349 53.7214 177.883 47.989 170.802 45.6101C155.678 40.5275 143.075 53.2359 143.075 53.2359L95.9127 104.301C91.9908 108.547 86.1617 110.56 80.5252 109.384C79.9808 109.272 79.4586 109.134 78.9586 108.977C72.2185 106.856 68.2263 99.902 69.315 92.8662C72.5444 72.0129 94.0499 75.6279 94.0499 75.6279C92.5685 66.6651 95.1238 60.0663 98.7717 55.3571C103.749 48.9338 111.496 45.3188 119.585 45.3188H140.405C142.49 46.5624 145.156 46.9247 147.923 45.7819C149.897 44.9678 151.445 43.3358 152.178 41.3155C154.293 35.4747 150.063 30 144.564 30C142.331 30 140.312 30.9037 138.835 32.3677C134.639 32.0913 125.084 31.688 117.544 32.532C112.841 33.0585 110.411 33.2004 107.178 34.149C104.16 35.0341 94.9535 37.7304 89.0651 45.6251C83.6471 52.8849 81.9732 63.2817 81.9435 63.3638C72.7296 65.4776 63.9341 69.7012 58.0679 83.6383C52.2055 97.5754 58.9493 116.05 76.4996 121.23C76.8181 121.323 77.1329 121.413 77.4439 121.498C88.4652 124.501 100.22 120.811 107.823 112.222L151.056 63.3638C155.663 58.2961 162.366 58.2961 162.366 58.2961C177.446 58.2961 174.931 78.5706 174.931 78.5706C180.905 78.5706 191.685 85.33 190.012 96.3094C189.301 100.981 186.312 104.279 183.112 106.523C179.183 109.279 174.472 110.668 169.684 110.668H143.945L143.882 110.683C142.249 109.642 140.235 109.152 138.087 109.522C134.672 110.108 131.961 112.872 131.428 116.326C130.632 121.472 134.557 125.905 139.509 125.905C141.827 125.905 143.916 124.927 145.404 123.366H171.565C199.218 123.366 202.992 97.1683 202.992 97.1683C203.41 74.7764 187.49 69.283 187.49 69.283L187.486 69.2905Z" fill="white"/>
<path d="M61.603 148.205H74.725V204.905H61.603V148.205ZM35.845 204.905H22.723V148.205H35.845V204.905ZM62.575 181.658H34.873V170.561H62.575V181.658ZM107.985 205.553C103.341 205.553 99.21 204.581 95.592 202.637C92.028 200.693 89.193 198.047 87.087 194.699C85.035 191.297 84.009 187.436 84.009 183.116C84.009 178.742 85.035 174.881 87.087 171.533C89.193 168.131 92.028 165.485 95.592 163.595C99.21 161.651 103.341 160.679 107.985 160.679C112.575 160.679 116.679 161.651 120.297 163.595C123.915 165.485 126.75 168.104 128.802 171.452C130.854 174.8 131.88 178.688 131.88 183.116C131.88 187.436 130.854 191.297 128.802 194.699C126.75 198.047 123.915 200.693 120.297 202.637C116.679 204.581 112.575 205.553 107.985 205.553ZM107.985 195.185C110.091 195.185 111.981 194.699 113.655 193.727C115.329 192.755 116.652 191.378 117.624 189.596C118.596 187.76 119.082 185.6 119.082 183.116C119.082 180.578 118.596 178.418 117.624 176.636C116.652 174.854 115.329 173.477 113.655 172.505C111.981 171.533 110.091 171.047 107.985 171.047C105.879 171.047 103.989 171.533 102.315 172.505C100.641 173.477 99.291 174.854 98.265 176.636C97.293 178.418 96.807 180.578 96.807 183.116C96.807 185.6 97.293 187.76 98.265 189.596C99.291 191.378 100.641 192.755 102.315 193.727C103.989 194.699 105.879 195.185 107.985 195.185ZM166.084 205.553C162.412 205.553 159.199 204.743 156.445 203.123C153.691 201.503 151.531 199.046 149.965 195.752C148.453 192.404 147.697 188.192 147.697 183.116C147.697 177.986 148.426 173.774 149.884 170.48C151.342 167.186 153.448 164.729 156.202 163.109C158.956 161.489 162.25 160.679 166.084 160.679C170.188 160.679 173.86 161.624 177.1 163.514C180.394 165.35 182.986 167.942 184.876 171.29C186.82 174.638 187.792 178.58 187.792 183.116C187.792 187.706 186.82 191.675 184.876 195.023C182.986 198.371 180.394 200.963 177.1 202.799C173.86 204.635 170.188 205.553 166.084 205.553ZM140.326 220.619V161.327H152.395V170.237L152.152 183.197L152.962 196.076V220.619H140.326ZM163.897 195.185C166.003 195.185 167.866 194.699 169.486 193.727C171.16 192.755 172.483 191.378 173.455 189.596C174.481 187.76 174.994 185.6 174.994 183.116C174.994 180.578 174.481 178.418 173.455 176.636C172.483 174.854 171.16 173.477 169.486 172.505C167.866 171.533 166.003 171.047 163.897 171.047C161.791 171.047 159.901 171.533 158.227 172.505C156.553 173.477 155.23 174.854 154.258 176.636C153.286 178.418 152.8 180.578 152.8 183.116C152.8 185.6 153.286 187.76 154.258 189.596C155.23 191.378 156.553 192.755 158.227 193.727C159.901 194.699 161.791 195.185 163.897 195.185ZM217.878 205.553C212.91 205.553 208.536 204.581 204.756 202.637C201.03 200.693 198.141 198.047 196.089 194.699C194.037 191.297 193.011 187.436 193.011 183.116C193.011 178.742 194.01 174.881 196.008 171.533C198.06 168.131 200.841 165.485 204.351 163.595C207.861 161.651 211.83 160.679 216.258 160.679C220.524 160.679 224.358 161.597 227.76 163.433C231.216 165.215 233.943 167.807 235.941 171.209C237.939 174.557 238.938 178.58 238.938 183.278C238.938 183.764 238.911 184.331 238.857 184.979C238.803 185.573 238.749 186.14 238.695 186.68H203.298V179.309H232.053L227.193 181.496C227.193 179.228 226.734 177.257 225.816 175.583C224.898 173.909 223.629 172.613 222.009 171.695C220.389 170.723 218.499 170.237 216.339 170.237C214.179 170.237 212.262 170.723 210.588 171.695C208.968 172.613 207.699 173.936 206.781 175.664C205.863 177.338 205.404 179.336 205.404 181.658V183.602C205.404 185.978 205.917 188.084 206.943 189.92C208.023 191.702 209.508 193.079 211.398 194.051C213.342 194.969 215.61 195.428 218.202 195.428C220.524 195.428 222.549 195.077 224.277 194.375C226.059 193.673 227.679 192.62 229.137 191.216L235.86 198.506C233.862 200.774 231.351 202.529 228.327 203.771C225.303 204.959 221.82 205.553 217.878 205.553Z" fill="white"/>
</svg>
