<svg width="257" height="257" viewBox="0 0 257 257" fill="none" xmlns="http://www.w3.org/2000/svg">
<rect width="257" height="257" rx="128.5" fill="#EBEBEB"/>
<path d="M210.154 116.307C209.371 111.77 208.855 107.754 207.723 104.416C204.328 94.3912 196.631 86.322 186.66 82.9734C165.362 75.8189 147.616 93.7078 147.616 93.7078L81.2035 165.589C75.6809 171.566 67.4726 174.4 59.5354 172.744C58.7688 172.586 58.0335 172.392 57.3295 172.171C47.8383 169.185 42.2166 159.397 43.7498 149.493C48.2972 120.139 78.5804 125.228 78.5804 125.228C76.4944 112.611 80.0927 103.323 85.2295 96.6937C92.2384 87.652 103.148 82.5634 114.537 82.5634H143.856C146.792 84.3139 150.547 84.8238 154.442 83.2153C157.222 82.0693 159.402 79.772 160.434 76.9281C163.412 68.7065 157.457 61 149.712 61C146.568 61 143.726 62.2721 141.645 64.3328C135.736 63.9438 122.282 63.3761 111.664 64.5641C105.041 65.3053 101.62 65.5051 97.0674 66.8403C92.8172 68.0862 79.8529 71.8816 71.5611 82.9945C63.9316 93.2137 61.5745 107.849 61.5327 107.964C48.5579 110.94 36.1724 116.885 27.912 136.503C19.6567 156.122 29.1531 182.127 53.8668 189.418C54.3152 189.55 54.7585 189.676 55.1966 189.797C70.7163 194.023 87.2685 188.83 97.9748 176.739L158.854 107.964C165.342 100.831 174.781 100.831 174.781 100.831C196.016 100.831 192.475 129.37 192.475 129.37C200.887 129.37 216.067 138.885 213.71 154.34C212.709 160.916 208.5 165.558 203.995 168.717C198.462 172.597 191.828 174.552 185.085 174.552H148.841L148.753 174.573C146.453 173.107 143.616 172.418 140.591 172.938C135.783 173.764 131.966 177.654 131.215 182.516C130.094 189.76 135.622 196 142.594 196C145.858 196 148.8 194.623 150.896 192.425H187.735C226.675 192.425 231.989 155.549 231.989 155.549C232.578 124.029 210.159 116.296 210.159 116.296L210.154 116.307Z" fill="url(#paint0_linear_281_33)"/>
<defs>
<linearGradient id="paint0_linear_281_33" x1="222" y1="128.5" x2="24.9689" y2="148.851" gradientUnits="userSpaceOnUse">
<stop stop-color="#24464F"/>
<stop offset="0.51" stop-color="#1AAEA2"/>
<stop offset="0.995" stop-color="#24464F"/>
</linearGradient>
</defs>
</svg>
