<svg width="207" height="135" viewBox="0 0 207 135" fill="none" xmlns="http://www.w3.org/2000/svg">
<path d="M185.154 55.3068C184.371 50.7702 183.855 46.754 182.723 43.416C179.328 33.3912 171.631 25.322 161.66 21.9734C140.362 14.8189 122.616 32.7078 122.616 32.7078L56.2035 104.589C50.6809 110.566 42.4726 113.4 34.5354 111.744C33.7688 111.586 33.0335 111.392 32.3295 111.171C22.8383 108.185 17.2166 98.3969 18.7498 88.493C23.2972 59.1391 53.5804 64.2276 53.5804 64.2276C51.4944 51.6113 55.0927 42.3225 60.2295 35.6937C67.2384 26.652 78.148 21.5634 89.5375 21.5634H118.856C121.792 23.3139 125.547 23.8238 129.442 22.2153C132.222 21.0693 134.402 18.772 135.434 15.9281C138.412 7.70648 132.457 0 124.712 0C121.568 0 118.726 1.27215 116.645 3.33281C110.736 2.94381 97.2817 2.37608 86.664 3.56411C80.0411 4.30532 76.62 4.50508 72.0674 5.84031C67.8172 7.08617 54.8529 10.8816 46.5611 21.9945C38.9316 32.2137 36.5745 46.8486 36.5327 46.9643C23.5579 49.9396 11.1724 55.8851 2.91196 75.5035C-5.3433 95.1219 4.15312 121.127 28.8668 128.418C29.3152 128.55 29.7585 128.676 30.1966 128.797C45.7163 133.023 62.2685 127.83 72.9748 115.739L133.854 46.9643C140.342 39.8308 149.781 39.8308 149.781 39.8308C171.016 39.8308 167.475 68.37 167.475 68.37C175.887 68.37 191.067 77.8848 188.71 93.3398C187.709 99.9161 183.5 104.558 178.995 107.717C173.462 111.597 166.828 113.552 160.085 113.552H123.841L123.753 113.573C121.453 112.107 118.616 111.418 115.591 111.938C110.783 112.764 106.966 116.654 106.215 121.516C105.094 128.76 110.622 135 117.594 135C120.858 135 123.8 133.623 125.896 131.425H162.735C201.675 131.425 206.989 94.5489 206.989 94.5489C207.578 63.0291 185.159 55.2963 185.159 55.2963L185.154 55.3068Z" fill="url(#paint0_linear_222_63)"/>
<defs>
<linearGradient id="paint0_linear_222_63" x1="197" y1="67.5" x2="-0.0311451" y2="87.8514" gradientUnits="userSpaceOnUse">
<stop stop-color="#24464F"/>
<stop offset="0.51" stop-color="#1AAEA2"/>
<stop offset="0.995" stop-color="#24464F"/>
</linearGradient>
</defs>
</svg>
