<svg width="1728" height="1216" viewBox="0 0 1728 1216" fill="none" xmlns="http://www.w3.org/2000/svg">
<path opacity="0.125" d="M-1287.06 405.35C-816.45 458.059 -772.917 401.666 -470.203 471.17C-167.489 540.675 102.595 672.606 447.522 646.592C792.451 620.567 1009.16 425.351 1222.7 547.224C1436.25 669.098 1416.17 801.502 1610.35 810.918C1804.55 820.335 2033.48 701.019 2185.95 718.957C2317.21 734.401 2184.81 852.156 2545.96 889.748" stroke="#121212" stroke-width="0.2813" stroke-miterlimit="10"/>
<path opacity="0.25" d="M-1271.63 419.054C-800.946 472.125 -764.295 351.517 -461.532 421.456C-158.77 491.395 107.626 708.092 452.618 681.948C797.609 655.803 1008.79 397.941 1222.37 520.546C1435.94 643.151 1343.32 813.756 1537.55 823.246C1731.77 832.735 1972.83 684.51 2146.14 709.291C2277.09 728.013 2227.67 906.32 2591.23 917.953" stroke="#121212" stroke-width="0.3125" stroke-miterlimit="10"/>
<path opacity="0.375" d="M-1256.28 433.041C-785.502 486.46 -755.728 300.906 -452.912 371.284C-150.095 441.652 112.594 744.058 457.654 717.805C802.715 691.542 1008.39 370.349 1222 493.677C1435.61 617.006 1270.42 826.209 1464.68 835.782C1658.94 845.343 1912 669.284 2106.3 699.587C2237.09 719.992 2270.52 961.176 2636.52 946.549" stroke="#121212" stroke-width="0.3438" stroke-miterlimit="10"/>
<path opacity="0.5" d="M-1240.94 447.228C-770.074 500.967 -747.172 249.854 -444.299 320.617C-141.427 391.38 117.556 780.295 462.687 753.922C807.817 727.549 1007.99 342.487 1221.64 466.483C1435.28 590.477 1197.49 838.597 1391.78 848.235C1586.08 857.863 1851.19 653.514 2066.45 689.625C2197.08 711.54 2313.39 1016.37 2681.83 975.182" stroke="#121212" stroke-width="0.375" stroke-miterlimit="10"/>
<path opacity="0.625" d="M-1225.62 461.604C-754.661 515.632 -738.628 198.441 -435.699 269.56C-132.771 340.68 122.497 816.741 467.686 790.278C812.886 763.805 1007.56 314.446 1221.24 439.043C1434.92 563.64 1124.48 850.919 1318.83 860.608C1513.16 870.295 1790.34 637.256 2026.54 679.453C2157.05 702.768 2356.22 1071.83 2727.11 1003.85" stroke="#121212" stroke-width="0.4063" stroke-miterlimit="10"/>
<path opacity="0.75" d="M-1210.3 476.127C-739.253 530.414 -730.087 146.713 -427.103 218.154C-124.119 289.595 127.417 853.337 472.684 826.785C817.952 800.233 1007.13 286.216 1220.85 411.355C1434.56 536.494 1051.47 863.132 1245.84 872.872C1440.22 882.615 1729.52 620.515 1986.63 669.052C2117.03 693.673 2399.08 1127.46 2772.42 1032.48" stroke="#121212" stroke-width="0.4375" stroke-miterlimit="10"/>
<path opacity="0.875" d="M-1194.98 490.778C-723.844 545.298 -721.533 94.725 -418.504 166.453C-115.465 238.183 132.339 890.067 477.676 863.423C823.012 836.78 1006.69 257.824 1220.44 383.451C1434.19 509.078 978.396 875.236 1172.81 885.026C1367.22 894.815 1668.7 603.301 1946.69 658.459C2076.99 684.31 2441.95 1183.23 2817.72 1061.07" stroke="#121212" stroke-width="0.4688" stroke-miterlimit="10"/>
<path d="M-1179.66 504.708C-708.41 559.505 -712.957 41.1957 -409.846 113.268C-106.734 185.341 137.341 926.535 482.765 899.805C828.19 873.064 1006.39 228.238 1220.19 354.445C1433.98 480.651 905.44 886.884 1099.89 896.741C1294.36 906.588 1608.08 584.988 1906.91 647.083C2037.14 674.141 2485.03 1239.14 2863.27 1089.48" stroke="#121212" stroke-width="0.5" stroke-miterlimit="10"/>
</svg>
