<svg width="1728" height="932" viewBox="0 0 1728 932" fill="none" xmlns="http://www.w3.org/2000/svg">
<path opacity="0.125" d="M-1022.98 270.276C-693.926 353.425 -656.093 317.81 -448.728 396.457C-241.362 475.104 -64.787 594.693 184.193 609.941C433.175 625.183 611.187 508.332 748.679 615.299C886.171 722.266 855.883 813.894 993.148 839.486C1130.42 865.079 1307.98 803.068 1414.49 830.616C1506.18 854.332 1397.6 924.652 1650.47 986.441" stroke="#06484A" stroke-width="0.2813" stroke-miterlimit="10"/>
<path opacity="0.25" d="M-1013.51 282.322C-684.453 365.478 -643.871 284.294 -436.505 362.941C-229.14 441.588 -65.2913 619.822 183.691 635.064C432.673 650.305 614.091 489.675 751.583 596.641C889.075 703.608 802.613 814.472 939.884 840.066C1077.15 865.657 1266.71 784.982 1387.24 819.283C1478.31 845.199 1421.71 965.684 1679.4 1009.28" stroke="#06484A" stroke-width="0.3125" stroke-miterlimit="10"/>
<path opacity="0.375" d="M-1004.03 294.367C-674.98 377.523 -631.648 250.771 -424.285 329.425C-216.919 408.072 -65.8026 644.942 183.177 660.19C432.159 675.431 616.99 471.031 754.482 577.997C891.973 684.964 749.339 815.056 886.609 840.657C1023.87 866.249 1225.16 767.869 1359.99 807.957C1450.74 834.947 1445.81 1006.72 1708.33 1032.13" stroke="#06484A" stroke-width="0.3438" stroke-miterlimit="10"/>
<path opacity="0.5" d="M-994.557 306.406C-665.503 389.561 -619.424 217.248 -412.059 295.895C-204.693 374.542 -66.3032 670.057 182.679 685.298C431.661 700.539 619.896 452.366 757.395 559.335C894.887 666.301 696.085 815.631 833.348 841.23C970.613 866.821 1183.69 750.573 1332.75 796.612C1423.21 824.552 1469.93 1047.74 1737.28 1054.96" stroke="#06484A" stroke-width="0.375" stroke-miterlimit="10"/>
<path opacity="0.625" d="M-985.084 318.451C-656.029 401.606 -607.203 183.732 -399.837 262.378C-192.472 341.025 -66.8068 695.178 182.166 710.425C431.148 725.666 622.795 433.722 760.287 540.689C897.779 647.655 642.802 816.221 780.074 841.814C917.339 867.405 1142.24 733.132 1305.49 785.284C1395.7 814.1 1494.02 1088.77 1766.2 1077.8" stroke="#06484A" stroke-width="0.4063" stroke-miterlimit="10"/>
<path opacity="0.75" d="M-975.611 330.496C-646.557 413.651 -594.983 150.215 -387.618 228.862C-180.252 307.509 -67.3187 720.298 181.661 735.546C430.642 750.795 625.702 415.073 763.194 522.04C900.686 629.006 589.542 816.809 726.807 842.4C864.079 867.994 1100.86 715.541 1278.25 773.953C1368.22 803.581 1518.14 1129.81 1795.14 1100.64" stroke="#06484A" stroke-width="0.4375" stroke-miterlimit="10"/>
<path opacity="0.875" d="M-966.137 342.542C-637.083 425.697 -582.754 116.701 -375.396 195.346C-168.03 273.993 -67.8237 745.427 181.158 760.668C430.14 775.91 628.606 396.415 766.097 503.382C903.589 610.349 536.272 817.387 673.543 842.98C810.808 868.572 1059.54 697.78 1251.01 762.622C1340.76 793.013 1542.25 1170.84 1824.07 1123.49" stroke="#06484A" stroke-width="0.4688" stroke-miterlimit="10"/>
<path d="M-956.664 354.586C-627.609 437.742 -570.533 83.1849 -363.168 161.832C-155.802 240.479 -68.3206 770.55 180.659 785.799C429.641 801.04 631.519 377.775 769.01 484.742C906.502 591.708 483.019 817.977 620.282 843.575C757.554 869.169 1018.28 679.883 1223.76 751.297C1313.31 782.418 1566.36 1211.88 1853.01 1146.33" stroke="#06484A" stroke-width="0.5" stroke-miterlimit="10"/>
</svg>
