<svg width="48" height="48" viewBox="0 0 48 48" fill="none" xmlns="http://www.w3.org/2000/svg">
<circle cx="24" cy="24" r="23" fill="black" stroke="white" stroke-width="2"/>
<path d="M18.25 12H28.75C32.75 12 36 15.25 36 19.25V29.75C36 31.6728 35.2362 33.5169 33.8765 34.8765C32.5169 36.2362 30.6728 37 28.75 37H18.25C14.25 37 11 33.75 11 29.75V19.25C11 17.3272 11.7638 15.4831 13.1235 14.1235C14.4831 12.7638 16.3272 12 18.25 12ZM18 14.5C16.8065 14.5 15.6619 14.9741 14.818 15.818C13.9741 16.6619 13.5 17.8065 13.5 19V30C13.5 32.4875 15.5125 34.5 18 34.5H29C30.1935 34.5 31.3381 34.0259 32.182 33.182C33.0259 32.3381 33.5 31.1935 33.5 30V19C33.5 16.5125 31.4875 14.5 29 14.5H18ZM30.0625 16.375C30.4769 16.375 30.8743 16.5396 31.1674 16.8326C31.4604 17.1257 31.625 17.5231 31.625 17.9375C31.625 18.3519 31.4604 18.7493 31.1674 19.0424C30.8743 19.3354 30.4769 19.5 30.0625 19.5C29.6481 19.5 29.2507 19.3354 28.9576 19.0424C28.6646 18.7493 28.5 18.3519 28.5 17.9375C28.5 17.5231 28.6646 17.1257 28.9576 16.8326C29.2507 16.5396 29.6481 16.375 30.0625 16.375ZM23.5 18.25C25.1576 18.25 26.7473 18.9085 27.9194 20.0806C29.0915 21.2527 29.75 22.8424 29.75 24.5C29.75 26.1576 29.0915 27.7473 27.9194 28.9194C26.7473 30.0915 25.1576 30.75 23.5 30.75C21.8424 30.75 20.2527 30.0915 19.0806 28.9194C17.9085 27.7473 17.25 26.1576 17.25 24.5C17.25 22.8424 17.9085 21.2527 19.0806 20.0806C20.2527 18.9085 21.8424 18.25 23.5 18.25ZM23.5 20.75C22.5054 20.75 21.5516 21.1451 20.8483 21.8483C20.1451 22.5516 19.75 23.5054 19.75 24.5C19.75 25.4946 20.1451 26.4484 20.8483 27.1517C21.5516 27.8549 22.5054 28.25 23.5 28.25C24.4946 28.25 25.4484 27.8549 26.1517 27.1517C26.8549 26.4484 27.25 25.4946 27.25 24.5C27.25 23.5054 26.8549 22.5516 26.1517 21.8483C25.4484 21.1451 24.4946 20.75 23.5 20.75Z" fill="white"/>
</svg>
