<svg width="48" height="48" viewBox="0 0 48 48" fill="none" xmlns="http://www.w3.org/2000/svg">
<circle cx="24" cy="24" r="23" fill="white" stroke="black" stroke-width="2"/>
<path d="M33.2222 12C33.9589 12 34.6655 12.2927 35.1864 12.8136C35.7073 13.3345 36 14.0411 36 14.7778V34.2222C36 34.9589 35.7073 35.6655 35.1864 36.1864C34.6655 36.7073 33.9589 37 33.2222 37H13.7778C13.0411 37 12.3345 36.7073 11.8136 36.1864C11.2927 35.6655 11 34.9589 11 34.2222V14.7778C11 14.0411 11.2927 13.3345 11.8136 12.8136C12.3345 12.2927 13.0411 12 13.7778 12H33.2222ZM32.5278 33.5278V26.1667C32.5278 24.9658 32.0507 23.8142 31.2016 22.965C30.3525 22.1159 29.2008 21.6389 28 21.6389C26.8194 21.6389 25.4444 22.3611 24.7778 23.4444V21.9028H20.9028V33.5278H24.7778V26.6806C24.7778 25.6111 25.6389 24.7361 26.7083 24.7361C27.224 24.7361 27.7186 24.941 28.0833 25.3056C28.4479 25.6703 28.6528 26.1649 28.6528 26.6806V33.5278H32.5278ZM16.3889 19.7222C17.0077 19.7222 17.6012 19.4764 18.0388 19.0388C18.4764 18.6012 18.7222 18.0077 18.7222 17.3889C18.7222 16.0972 17.6806 15.0417 16.3889 15.0417C15.7664 15.0417 15.1693 15.289 14.7292 15.7292C14.289 16.1693 14.0417 16.7664 14.0417 17.3889C14.0417 18.6806 15.0972 19.7222 16.3889 19.7222ZM18.3194 33.5278V21.9028H14.4722V33.5278H18.3194Z" fill="black"/>
</svg>
