<svg width="79" height="53" viewBox="0 0 79 53" fill="none" xmlns="http://www.w3.org/2000/svg">
<path d="M70.3497 22.1427C70.0525 20.4047 69.8564 18.8661 69.4264 17.5872C68.1365 13.7466 65.2119 10.6552 61.4234 9.37236C53.3312 6.63139 46.5883 13.4848 46.5883 13.4848L21.3547 41.0234C19.2564 43.3132 16.1376 44.3987 13.1218 43.7644C12.8306 43.7039 12.5512 43.6294 12.2837 43.5448C8.67748 42.4009 6.54149 38.651 7.12403 34.8567C8.85185 23.6109 20.3581 25.5604 20.3581 25.5604C19.5655 20.7269 20.9327 17.1683 22.8844 14.6287C25.5474 11.1648 29.6926 9.21527 34.0201 9.21527H45.1597C46.2753 9.88591 47.7019 10.0813 49.182 9.465C50.2381 9.02596 51.0664 8.14587 51.4587 7.05633C52.5901 3.90653 50.3273 0.954102 47.3849 0.954102C46.1901 0.954102 45.1102 1.44147 44.3196 2.23094C42.0746 2.08191 36.9625 1.8644 32.9283 2.31955C30.4119 2.60352 29.112 2.68005 27.3823 3.19159C25.7674 3.66889 20.8415 5.12295 17.691 9.38041C14.7922 13.2955 13.8966 18.9023 13.8807 18.9466C8.95092 20.0865 4.24501 22.3643 1.10641 29.8803C-2.03021 37.3963 1.57799 47.3592 10.968 50.1526C11.1384 50.2029 11.3069 50.2512 11.4733 50.2976C17.37 51.9168 23.6591 49.927 27.727 45.2949L50.8583 18.9466C53.3232 16.2137 56.9096 16.2137 56.9096 16.2137C64.9781 16.2137 63.6327 27.1474 63.6327 27.1474C66.8287 27.1474 72.5967 30.7926 71.7011 36.7136C71.3206 39.233 69.7216 41.0113 68.0097 42.2217C65.9073 43.708 63.387 44.4571 60.825 44.4571H47.054L47.0203 44.4652C46.1465 43.9033 45.0686 43.6395 43.9193 43.8389C42.0924 44.1551 40.642 45.6454 40.3567 47.5083C39.9307 50.2835 42.031 52.674 44.6802 52.674C45.9206 52.674 47.0381 52.1464 47.8347 51.3045H61.8315C76.6269 51.3045 78.646 37.1768 78.646 37.1768C78.8699 25.1012 70.3517 22.1387 70.3517 22.1387L70.3497 22.1427Z" fill="white"/>
</svg>
