<svg width="48" height="48" viewBox="0 0 48 48" fill="none" xmlns="http://www.w3.org/2000/svg">
<circle cx="24" cy="24" r="23" fill="white" stroke="black" stroke-width="2"/>
<path d="M34.9281 29.1298L28.9024 26.4294C28.6294 26.3124 28.3315 26.2654 28.0357 26.2926C27.7399 26.3197 27.4556 26.4203 27.2085 26.585C27.1834 26.6011 27.1595 26.619 27.137 26.6386L23.9877 29.3173C23.955 29.3351 23.9186 29.345 23.8815 29.3464C23.8443 29.3477 23.8073 29.3404 23.7734 29.3249C21.7491 28.3478 19.6521 26.2636 18.6712 24.2673C18.6549 24.234 18.6464 24.1973 18.6464 24.1602C18.6464 24.1231 18.6549 24.0864 18.6712 24.0531L21.3588 20.8642C21.3781 20.8406 21.396 20.8159 21.4124 20.7902C21.5748 20.5421 21.673 20.2574 21.6979 19.9619C21.7229 19.6664 21.6738 19.3693 21.5552 19.0975L18.874 13.082C18.7217 12.7269 18.4584 12.4308 18.1235 12.238C17.7887 12.0453 17.4003 11.9664 17.0168 12.0131C15.3499 12.2322 13.8199 13.0508 12.7126 14.3159C11.6053 15.5809 10.9965 17.2059 11 18.8871C11 28.8746 19.1253 36.9999 29.1129 36.9999C30.794 37.0031 32.4188 36.3943 33.6838 35.287C34.9488 34.1798 35.7674 32.6499 35.9868 30.9831C36.0335 30.6014 35.9556 30.2148 35.7648 29.8809C35.5741 29.5469 35.2806 29.2835 34.9281 29.1298ZM29.1129 35.4693C19.9697 35.4693 12.5307 28.0302 12.5307 18.8871C12.5264 17.5783 12.9988 16.3127 13.8596 15.3268C14.7204 14.3408 15.9107 13.7021 17.2081 13.5297H17.2375C17.2889 13.5307 17.3388 13.5472 17.3807 13.577C17.4225 13.6068 17.4544 13.6486 17.4722 13.6968L20.1636 19.706C20.1789 19.7394 20.1869 19.7757 20.1869 19.8125C20.1869 19.8492 20.1789 19.8856 20.1636 19.919L17.4709 23.1155C17.4508 23.1383 17.4325 23.1626 17.416 23.1882C17.2476 23.4455 17.1483 23.7418 17.128 24.0487C17.1077 24.3555 17.1669 24.6624 17.3 24.9396C18.4314 27.256 20.7656 29.5724 23.1076 30.7038C23.3864 30.8361 23.6948 30.8939 24.0026 30.8716C24.3104 30.8492 24.6072 30.7475 24.864 30.5762C24.8882 30.5596 24.9125 30.5418 24.9354 30.5227L28.0835 27.844C28.1146 27.8273 28.1489 27.8175 28.1841 27.8153C28.2194 27.8131 28.2547 27.8185 28.2876 27.8312L34.3146 30.5316C34.3638 30.5525 34.4052 30.5885 34.4329 30.6342C34.4606 30.68 34.4732 30.7334 34.4689 30.7867C34.2975 32.0847 33.6593 33.2759 32.6736 34.1377C31.6879 34.9994 30.4222 35.4728 29.1129 35.4693Z" fill="black"/>
</svg>
